# xmcd
#
# Track frame offsets:
#	150
#	15990
#	34340
#	50505
#	65365
#	83047
#	101497
#	121545
#	139825
#	157552
#	177092
#
# Disc length: 2717 seconds
# Revision: 4
# Processed by: cddbd v1.5.2PL0 Copyright (c) Steve Scherf et al.
# Submitted via: dBpowerAMP V12.0
#
DISCID=780a9b0b
DTITLE=Tommy Shane Steiner - Then Came the Night
DYEAR=2002
DGENRE=Country
TTITLE0=That Just Wouldn't Be Me
TTITLE1=Tell Me Where It Hurts
TTITLE2=What If She's an Angel
TTITLE3=Let Go
TTITLE4=The Mind of John J. Blanchard
TTITLE5=What We're Gonna Do About It
TTITLE6=I Don't Need Another Reason
TTITLE7=Havin' a Good Time
TTITLE8=I Go Crazy
TTITLE9=And Yet
TTITLE10=Then Came the Night
EXTD=
EXTT0=
EXTT1=
EXTT2=
EXTT3=
EXTT4=
EXTT5=
EXTT6=
EXTT7=
EXTT8=
EXTT9=
EXTT10=
PLAYORDER=
